<svg width="165" height="34" viewBox="0 0 165 34" fill="none" xmlns="http://www.w3.org/2000/svg">
<path d="M42.5137 3.93308C43.8588 4.84335 44.8834 6.07817 45.5905 7.63444C46.2977 9.19226 46.6513 10.9309 46.6513 12.8488C46.6513 14.7667 46.2977 16.5069 45.5905 18.0632C44.8834 19.621 43.8573 20.8543 42.5137 21.7645C41.1685 22.6748 39.561 23.1307 37.6894 23.1307H30.5504C30.0318 23.1307 29.5997 22.9592 29.2508 22.6161C28.902 22.273 28.7275 21.848 28.7275 21.338V4.35962C28.7275 3.84962 28.902 3.42462 29.2508 3.08153C29.5981 2.73844 30.0318 2.56689 30.5504 2.56689H37.6894C39.561 2.56689 41.1701 3.0228 42.5137 3.93308ZM41.4231 17.8004C42.3188 16.4976 42.7683 14.8486 42.7683 12.8503C42.7683 10.8521 42.3141 9.20308 41.409 7.90026C40.5023 6.59744 39.1634 5.9468 37.3908 5.9468H32.4613V19.7554H37.3908C39.1823 19.7554 40.5274 19.1048 41.4231 17.802V17.8004Z" fill="#EDF0F7"/>
<path d="M52.8944 22.5158C51.62 21.9084 50.6394 21.0522 49.9527 19.9457C49.266 18.8391 48.9219 17.541 48.9219 16.0527C48.9219 13.6433 49.6337 11.7733 51.0574 10.4411C52.4812 9.10896 54.4879 8.44287 57.076 8.44287C58.6694 8.44287 60.079 8.6886 61.3032 9.17696C62.5273 9.66687 63.4843 10.3484 64.171 11.2185C64.8577 12.0901 65.2019 13.0839 65.2019 14.2012C65.2019 15.1409 64.8986 15.8657 64.2904 16.3757C63.6823 16.8857 62.8212 17.1391 61.707 17.1391H52.7153C52.7153 18.2364 53.1082 19.0632 53.8954 19.6227C54.6812 20.1806 55.8424 20.4603 57.3762 20.4603C58.99 20.4603 60.3634 20.108 61.4996 19.4032C62.136 19.0122 62.6342 18.816 62.9924 18.816C63.3303 18.816 63.6587 18.9736 63.9777 19.2858C64.3156 19.6196 64.4853 19.9812 64.4853 20.3722C64.4853 20.8421 64.2857 21.2145 63.8882 21.4881C63.0522 22.1155 62.0763 22.5946 60.9606 22.9284C59.8449 23.2607 58.6506 23.4276 57.3762 23.4276C55.6633 23.4276 54.1689 23.1247 52.896 22.5173L52.8944 22.5158ZM60.5127 14.4361C60.8506 14.4361 61.0894 14.3728 61.2293 14.2445C61.3676 14.1178 61.4383 13.9061 61.4383 13.6124C61.4383 12.9278 61.0454 12.3884 60.2582 11.9959C59.4709 11.6049 58.4102 11.4086 57.076 11.4086C55.7419 11.4086 54.6906 11.6821 53.9253 12.2308C53.1584 12.7794 52.775 13.5135 52.775 14.4346H60.5127V14.4361Z" fill="#EDF0F7"/>
<path d="M69.8624 19.5191L66.696 10.5879C66.6363 10.4117 66.6064 10.2463 66.6064 10.0887C66.6064 9.63899 66.8107 9.25571 67.2193 8.94199C67.6263 8.6298 68.1606 8.47217 68.8174 8.47217C69.215 8.47217 69.5545 8.56026 69.8326 8.73644C70.1107 8.91262 70.3103 9.15835 70.4297 9.47053L73.7753 19.0183C73.934 19.5083 74.0943 19.856 74.253 20.0615C74.4117 20.2671 74.5909 20.3706 74.7904 20.3706C74.99 20.3706 75.1692 20.2671 75.3279 20.0615C75.4866 19.856 75.6453 19.5083 75.8056 19.0183L79.1512 9.47053C79.2706 9.15835 79.4702 8.91262 79.7483 8.73644C80.0264 8.56026 80.3643 8.47217 80.7635 8.47217C81.4407 8.47217 81.9782 8.62362 82.3773 8.92808C82.7749 9.23099 82.9745 9.6189 82.9745 10.0887C82.9745 10.2463 82.9446 10.4117 82.8849 10.5879L79.7184 19.5191C78.8023 22.1247 77.1586 23.426 74.7889 23.426C72.4192 23.426 70.7754 22.1232 69.8593 19.5191H69.8624Z" fill="#EDF0F7"/>
<path d="M86.0984 6.01962C85.6505 5.61935 85.4258 5.09389 85.4258 4.44789C85.4258 3.80189 85.6505 3.27798 86.0984 2.87616C86.5462 2.47435 87.1386 2.27344 87.8756 2.27344C88.6126 2.27344 89.2145 2.47435 89.6828 2.87616C90.1511 3.27798 90.3852 3.80189 90.3852 4.44789C90.3852 5.09389 90.1511 5.61935 89.6828 6.01962C89.2145 6.42144 88.6126 6.62235 87.8756 6.62235C87.1386 6.62235 86.5462 6.42144 86.0984 6.01962ZM86.4724 22.9578C86.1329 22.6441 85.9648 22.2129 85.9648 21.6658V10.2078C85.9648 9.65916 86.1345 9.22798 86.4724 8.9158C86.8102 8.60207 87.2895 8.44598 87.9071 8.44598C88.5246 8.44598 88.9819 8.60362 89.3418 8.9158C89.7001 9.22953 89.8792 9.66071 89.8792 10.2078V21.6658C89.8792 22.2144 89.7001 22.6456 89.3418 22.9578C88.9835 23.27 88.5058 23.4276 87.9071 23.4276C87.3083 23.4276 86.8118 23.27 86.4724 22.9578Z" fill="#EDF0F7"/>
<path d="M93.6414 22.9563C93.3019 22.6426 93.1338 22.2114 93.1338 21.6643V10.2063C93.1338 9.63913 93.2988 9.20177 93.6272 8.89886C93.9556 8.59595 94.4192 8.44295 95.0164 8.44295C95.6135 8.44295 96.0818 8.60059 96.4212 8.91277C96.7591 9.2265 96.9288 9.65768 96.9288 10.2048V11.0563C98.3431 9.31304 100.274 8.44141 102.724 8.44141C104.637 8.44141 106.145 9.03332 107.25 10.2187C108.355 11.404 108.908 13.0144 108.908 15.0513V21.6612C108.908 22.2099 108.729 22.641 108.37 22.9532C108.012 23.2654 107.534 23.423 106.936 23.423C106.337 23.423 105.84 23.2654 105.501 22.9532C105.162 22.6395 104.993 22.2083 104.993 21.6612V15.0513C104.993 13.9355 104.714 13.0639 104.157 12.4364C103.6 11.8105 102.823 11.4968 101.827 11.4968C100.314 11.4968 99.1382 11.9326 98.3022 12.8042C97.4662 13.6759 97.0482 14.8952 97.0482 16.4623V21.6628C97.0482 22.2114 96.8691 22.6426 96.5108 22.9548C96.1525 23.267 95.6748 23.4246 95.0761 23.4246C94.4774 23.4246 93.9808 23.267 93.6414 22.9548V22.9563Z" fill="#EDF0F7"/>
<path d="M115.046 22.5017C113.701 21.8851 112.651 21.0088 111.895 19.8729C111.138 18.737 110.761 17.4249 110.761 15.9366C110.761 14.4483 111.139 13.1363 111.895 12.0003C112.651 10.8644 113.702 9.98816 115.046 9.37153C116.391 8.75489 117.93 8.4458 119.661 8.4458C121.393 8.4458 122.933 8.75489 124.277 9.37153C125.622 9.98816 126.671 10.866 127.427 12.0003C128.185 13.1363 128.562 14.4483 128.562 15.9366C128.562 17.4249 128.183 18.737 127.427 19.8729C126.67 21.0088 125.62 21.8851 124.277 22.5017C122.931 23.1183 121.393 23.4274 119.661 23.4274C117.93 23.4274 116.39 23.1183 115.046 22.5017ZM123.291 19.196C124.178 18.4124 124.621 17.326 124.621 15.9351C124.621 14.5442 124.178 13.4577 123.291 12.6742C122.405 11.8906 121.195 11.4996 119.661 11.4996C118.128 11.4996 116.918 11.8922 116.031 12.6742C115.145 13.4577 114.702 14.5442 114.702 15.9351C114.702 17.326 115.145 18.4124 116.031 19.196C116.918 19.9795 118.128 20.3721 119.661 20.3721C121.195 20.3721 122.405 19.9811 123.291 19.196Z" fill="#EDF0F7"/>
<path d="M132.924 19.5191L129.758 10.5879C129.698 10.4117 129.668 10.2463 129.668 10.0887C129.668 9.63899 129.872 9.25571 130.281 8.94199C130.688 8.6298 131.222 8.47217 131.879 8.47217C132.277 8.47217 132.616 8.56026 132.894 8.73644C133.172 8.91262 133.372 9.15835 133.491 9.47053L136.837 19.0183C136.996 19.5083 137.156 19.856 137.315 20.0615C137.473 20.2671 137.652 20.3706 137.852 20.3706C138.052 20.3706 138.231 20.2671 138.389 20.0615C138.548 19.856 138.707 19.5083 138.867 19.0183L142.213 9.47053C142.332 9.15835 142.532 8.91262 142.81 8.73644C143.088 8.56026 143.426 8.47217 143.825 8.47217C144.502 8.47217 145.04 8.62362 145.439 8.92808C145.836 9.23099 146.036 9.6189 146.036 10.0887C146.036 10.2463 146.006 10.4117 145.946 10.5879L142.78 19.5191C141.864 22.1247 140.22 23.426 137.85 23.426C135.481 23.426 133.837 22.1232 132.921 19.5191H132.924Z" fill="#EDF0F7"/>
<path d="M149.849 22.8093C148.903 22.3982 148.166 21.8249 147.638 21.0908C147.11 20.3567 146.846 19.5098 146.846 18.5485C146.846 17.0989 147.459 15.9444 148.683 15.0821C149.907 14.2197 151.566 13.7885 153.656 13.7885C155.468 13.7885 156.922 14.1702 158.017 14.9352V14.2305C158.017 13.311 157.728 12.6047 157.151 12.1148C156.573 11.6249 155.737 11.3807 154.642 11.3807C153.009 11.3807 151.604 11.7238 150.43 12.4084C149.932 12.6835 149.505 12.8195 149.145 12.8195C148.706 12.8195 148.318 12.6248 147.98 12.2322C147.76 11.9587 147.652 11.6743 147.652 11.3807C147.652 10.8908 147.911 10.4596 148.428 10.0887C149.145 9.5787 150.051 9.17843 151.147 8.88479C152.242 8.59115 153.397 8.44434 154.612 8.44434C156.922 8.44434 158.738 8.95897 160.065 9.9867C161.389 11.0144 162.051 12.4301 162.051 14.2321V21.7832C162.051 22.2932 161.876 22.6934 161.528 22.9871C161.179 23.2807 160.706 23.4275 160.109 23.4275C159.511 23.4275 159.013 23.29 158.674 23.0164C158.334 22.7429 158.166 22.3503 158.166 21.8419V21.5189C157.032 22.7923 155.347 23.4291 153.117 23.4291C151.882 23.4291 150.792 23.2235 149.846 22.8124L149.849 22.8093ZM156.988 20.1512C157.695 19.7694 158.048 19.2362 158.048 18.5501C158.048 17.9041 157.69 17.3848 156.974 16.9938C156.257 16.6028 155.3 16.4065 154.106 16.4065C153.031 16.4065 152.198 16.5935 151.612 16.9644C151.024 17.3369 150.73 17.8654 150.73 18.5501C150.73 19.2347 151.019 19.7694 151.596 20.1512C152.173 20.5329 152.99 20.7245 154.046 20.7245C155.3 20.7245 156.282 20.5329 156.988 20.1512Z" fill="#EDF0F7"/>
<path d="M59.0737 29.0575C59.3436 29.0575 59.5624 28.8423 59.5624 28.5768C59.5624 28.3114 59.3436 28.0962 59.0737 28.0962C58.8038 28.0962 58.585 28.3114 58.585 28.5768C58.585 28.8423 58.8038 29.0575 59.0737 29.0575Z" fill="#EDF0F7"/>
<path d="M55.2549 29.4903C55.7678 29.4903 56.1836 29.0814 56.1836 28.5769C56.1836 28.0725 55.7678 27.6636 55.2549 27.6636C54.742 27.6636 54.3262 28.0725 54.3262 28.5769C54.3262 29.0814 54.742 29.4903 55.2549 29.4903Z" fill="#EDF0F7"/>
<path d="M125.249 29.0575C125.519 29.0575 125.738 28.8423 125.738 28.5768C125.738 28.3114 125.519 28.0962 125.249 28.0962C124.98 28.0962 124.761 28.3114 124.761 28.5768C124.761 28.8423 124.98 29.0575 125.249 29.0575Z" fill="#EDF0F7"/>
<path d="M129.069 29.4903C129.582 29.4903 129.998 29.0814 129.998 28.5769C129.998 28.0725 129.582 27.6636 129.069 27.6636C128.556 27.6636 128.141 28.0725 128.141 28.5769C128.141 29.0814 128.556 29.4903 129.069 29.4903Z" fill="#EDF0F7"/>
<path d="M63.1703 30.5225C62.8937 30.4313 62.6753 30.3139 62.5166 30.1686L62.7256 29.7343C62.8765 29.8672 63.0697 29.977 63.3055 30.0604C63.5412 30.1439 63.7832 30.1856 64.033 30.1856C64.3615 30.1856 64.6066 30.1315 64.7685 30.0218C64.9303 29.912 65.012 29.7668 65.012 29.5844C65.012 29.4515 64.968 29.3418 64.8785 29.2583C64.7905 29.1749 64.6805 29.1115 64.55 29.0667C64.4196 29.0219 64.2357 28.9724 63.9985 28.9168C63.6999 28.8457 63.4595 28.7761 63.2772 28.705C63.0949 28.634 62.9377 28.5258 62.8073 28.379C62.6769 28.2321 62.6125 28.0343 62.6125 27.787C62.6125 27.58 62.6675 27.3914 62.779 27.2245C62.8906 27.0576 63.0587 26.9247 63.285 26.8242C63.5113 26.7238 63.7926 26.6743 64.1273 26.6743C64.3615 26.6743 64.5909 26.7037 64.8172 26.764C65.0435 26.8227 65.2383 26.9092 65.4002 27.0205L65.2132 27.4656C65.0466 27.362 64.8706 27.2832 64.682 27.2291C64.4935 27.175 64.308 27.1488 64.1273 27.1488C63.8067 27.1488 63.5663 27.206 63.406 27.3219C63.2457 27.4362 63.1656 27.5846 63.1656 27.767C63.1656 27.8999 63.2112 28.0096 63.3007 28.093C63.3919 28.1765 63.5035 28.2414 63.637 28.2878C63.7706 28.3341 63.9529 28.3836 64.1823 28.4346C64.4809 28.5057 64.7197 28.5752 64.9005 28.6463C65.0812 28.7174 65.2367 28.824 65.3672 28.9693C65.4976 29.1146 65.562 29.3093 65.562 29.5535C65.562 29.7575 65.5055 29.9445 65.3923 30.113C65.2792 30.2814 65.1079 30.4159 64.8769 30.5132C64.6475 30.6121 64.3646 30.66 64.0283 30.66C63.7297 30.66 63.4422 30.6152 63.1656 30.524L63.1703 30.5225Z" fill="#EDF0F7"/>
<path d="M68.6828 27.8258C68.9122 27.9525 69.093 28.1287 69.2234 28.3543C69.3538 28.5799 69.4182 28.8427 69.4182 29.1394C69.4182 29.4361 69.3538 29.6988 69.2234 29.926C69.093 30.1548 68.9138 30.3309 68.6828 30.4577C68.4534 30.5844 68.1925 30.6462 67.9018 30.6462C67.6865 30.6462 67.4901 30.606 67.3109 30.5241C67.1318 30.4422 66.9794 30.3232 66.8552 30.1687V31.6925H66.3115V27.665H66.8317V28.1318C66.9527 27.9679 67.1051 27.8458 67.2905 27.7624C67.4759 27.6789 67.6787 27.6372 67.9018 27.6372C68.1925 27.6372 68.4518 27.7006 68.6828 27.8258ZM68.3748 30.0481C68.5272 29.9616 68.6482 29.8379 68.7362 29.6803C68.8242 29.5227 68.8698 29.3418 68.8698 29.1378C68.8698 28.9338 68.8258 28.753 68.7362 28.5954C68.6482 28.4378 68.5272 28.3157 68.3748 28.2307C68.2224 28.1457 68.0495 28.1024 67.8578 28.1024C67.6661 28.1024 67.4979 28.1457 67.3455 28.2338C67.1931 28.3203 67.0721 28.4424 66.9841 28.5985C66.8961 28.7546 66.8505 28.9338 66.8505 29.1378C66.8505 29.3418 66.8945 29.5227 66.9809 29.6803C67.0674 29.8379 67.1884 29.96 67.3424 30.0481C67.4964 30.1347 67.6692 30.1795 67.8578 30.1795C68.0464 30.1795 68.2224 30.1362 68.3748 30.0481Z" fill="#EDF0F7"/>
<path d="M72.9993 27.6649V30.6137H72.4792V30.1469C72.3582 30.3108 72.2057 30.4344 72.0203 30.5194C71.8349 30.6044 71.6322 30.6477 71.409 30.6477C71.1183 30.6477 70.859 30.5843 70.628 30.4591C70.3986 30.3324 70.2179 30.1562 70.0874 29.9275C69.957 29.6988 69.8926 29.4376 69.8926 29.1409C69.8926 28.8441 69.957 28.5829 70.0874 28.3558C70.2179 28.1301 70.397 27.9539 70.628 27.8272C70.8574 27.7005 71.1183 27.6387 71.409 27.6387C71.6243 27.6387 71.8223 27.6789 72.003 27.7577C72.1837 27.838 72.3346 27.9555 72.4556 28.1116V27.6665H72.9993V27.6649ZM71.97 30.0496C72.124 29.963 72.245 29.8394 72.3314 29.6818C72.4179 29.5241 72.4619 29.3433 72.4619 29.1393C72.4619 28.9353 72.4179 28.7545 72.3314 28.5969C72.245 28.4392 72.124 28.3171 71.97 28.2321C71.816 28.1471 71.6432 28.1039 71.4546 28.1039C71.266 28.1039 71.09 28.1471 70.9376 28.2321C70.7852 28.3171 70.6642 28.4392 70.5762 28.5969C70.4882 28.7545 70.4426 28.9353 70.4426 29.1393C70.4426 29.3433 70.4866 29.5241 70.5762 29.6818C70.6642 29.8394 70.7852 29.9615 70.9376 30.0496C71.09 30.1361 71.2629 30.1809 71.4546 30.1809C71.6463 30.1809 71.8144 30.1377 71.97 30.0496Z" fill="#EDF0F7"/>
<path d="M74.969 27.7701C75.1544 27.6805 75.3776 27.6372 75.6416 27.6372V28.1549C75.6117 28.1518 75.5693 28.1488 75.5174 28.1488C75.2236 28.1488 74.9926 28.2353 74.8244 28.4068C74.6563 28.5799 74.573 28.8257 74.573 29.144V30.6122H74.0293V27.6635H74.5494V28.158C74.6437 27.988 74.7836 27.8582 74.9674 27.7686L74.969 27.7701Z" fill="#EDF0F7"/>
<path d="M77.4746 29.2398L76.8523 29.807V30.6137H76.3086V26.4858H76.8523V29.1347L78.4866 27.6666H79.1435L77.8816 28.8844L79.2676 30.6153H78.5997L77.4746 29.2414V29.2398Z" fill="#EDF0F7"/>
<path d="M84.1112 27.6651V30.2136C84.1112 30.7298 83.9886 31.1099 83.7435 31.3572C83.4984 31.6045 83.1307 31.7266 82.6404 31.7266C82.3732 31.7266 82.1171 31.6879 81.8735 31.6122C81.6299 31.5365 81.4319 31.4283 81.2764 31.2861L81.5419 30.875C81.6739 30.994 81.8326 31.0868 82.0196 31.1532C82.2066 31.2197 82.4031 31.2537 82.6105 31.2537C82.9389 31.2537 83.1794 31.1733 83.3349 31.011C83.4889 30.8503 83.5675 30.6015 83.5675 30.2677V30.0513C83.4575 30.1919 83.3161 30.3001 83.1432 30.3774C82.9704 30.4531 82.7818 30.4918 82.5775 30.4918C82.1784 30.4918 81.8625 30.3836 81.6331 30.1688C81.4036 29.9539 81.2874 29.634 81.2874 29.2121V27.6651H81.8311V29.1503C81.8311 29.4316 81.9002 29.6464 82.0401 29.7932C82.1799 29.94 82.3795 30.0127 82.6404 30.0127C82.9264 30.0127 83.1527 29.9277 83.3192 29.7561C83.4858 29.5861 83.5675 29.345 83.5675 29.0328V27.6636H84.1112V27.6651Z" fill="#EDF0F7"/>
<path d="M85.6262 30.4529C85.3889 30.3231 85.2035 30.1439 85.0683 29.9167C84.9348 29.6879 84.8672 29.4299 84.8672 29.1409C84.8672 28.8519 84.9348 28.5922 85.0683 28.365C85.2019 28.1363 85.3873 27.9586 85.6262 27.8303C85.8635 27.702 86.1322 27.6387 86.4292 27.6387C86.7262 27.6387 86.9933 27.702 87.229 27.8303C87.4648 27.9586 87.6502 28.1363 87.7838 28.365C87.9173 28.5938 87.9849 28.8519 87.9849 29.1409C87.9849 29.4299 87.9173 29.6895 87.7838 29.9167C87.6502 30.1454 87.4648 30.3231 87.229 30.4529C86.9933 30.5828 86.7262 30.6477 86.4292 30.6477C86.1322 30.6477 85.8635 30.5828 85.6262 30.4529ZM86.9478 30.0496C87.1002 29.963 87.2196 29.8394 87.3076 29.6818C87.394 29.5241 87.438 29.3433 87.438 29.1393C87.438 28.9353 87.394 28.7545 87.3076 28.5969C87.2212 28.4392 87.1018 28.3171 86.9478 28.2321C86.7953 28.1471 86.6225 28.1039 86.4308 28.1039C86.239 28.1039 86.0662 28.1471 85.9138 28.2321C85.7613 28.3171 85.6403 28.4392 85.5523 28.5969C85.4643 28.7545 85.4188 28.9353 85.4188 29.1393C85.4188 29.3433 85.4628 29.5241 85.5523 29.6818C85.6403 29.8394 85.7613 29.9615 85.9138 30.0496C86.0662 30.1361 86.239 30.1809 86.4308 30.1809C86.6225 30.1809 86.7953 30.1377 86.9478 30.0496Z" fill="#EDF0F7"/>
<path d="M91.5328 27.6651V30.6138H91.0174V30.1688C90.9074 30.3202 90.7644 30.4392 90.5853 30.5227C90.4061 30.6061 90.2113 30.6478 89.9991 30.6478C89.6 30.6478 89.2841 30.5397 89.0547 30.3218C88.8253 30.1054 88.709 29.7855 88.709 29.362V27.6651H89.2527V29.3002C89.2527 29.5861 89.3218 29.8025 89.4617 29.9478C89.6016 30.0946 89.8011 30.1672 90.062 30.1672C90.348 30.1672 90.5743 30.0822 90.7408 29.9107C90.9074 29.7407 90.9891 29.4996 90.9891 29.1874V27.6636H91.5328V27.6651Z" fill="#EDF0F7"/>
<path d="M93.5071 27.7701C93.6925 27.6805 93.9157 27.6372 94.1797 27.6372V28.1549C94.1498 28.1518 94.1074 28.1488 94.0555 28.1488C93.7617 28.1488 93.5307 28.2353 93.3625 28.4068C93.1944 28.5799 93.1111 28.8257 93.1111 29.144V30.6122H92.5674V27.6635H93.0875V28.158C93.1818 27.988 93.3217 27.8582 93.5055 27.7686L93.5071 27.7701Z" fill="#EDF0F7"/>
<path d="M99.242 27.081C99.5359 27.322 99.6836 27.6543 99.6836 28.0762C99.6836 28.4981 99.5359 28.8304 99.242 29.0715C98.9482 29.3126 98.5443 29.4331 98.032 29.4331H97.053V30.6123H96.4873V26.7178H98.032C98.5443 26.7178 98.9482 26.8383 99.242 27.0794V27.081ZM98.835 28.7253C99.0236 28.5754 99.1179 28.359 99.1179 28.0778C99.1179 27.7965 99.0236 27.5801 98.835 27.4302C98.6464 27.2803 98.373 27.2046 98.0147 27.2046H97.053V28.951H98.0147C98.373 28.951 98.6464 28.8752 98.835 28.7253Z" fill="#EDF0F7"/>
<path d="M100.906 30.4529C100.669 30.3231 100.484 30.1439 100.349 29.9167C100.215 29.6879 100.147 29.4299 100.147 29.1409C100.147 28.8519 100.215 28.5922 100.349 28.365C100.482 28.1363 100.668 27.9586 100.906 27.8303C101.144 27.702 101.412 27.6387 101.709 27.6387C102.006 27.6387 102.274 27.702 102.509 27.8303C102.745 27.9586 102.93 28.1363 103.064 28.365C103.198 28.5938 103.265 28.8519 103.265 29.1409C103.265 29.4299 103.198 29.6895 103.064 29.9167C102.93 30.1454 102.745 30.3231 102.509 30.4529C102.274 30.5828 102.006 30.6477 101.709 30.6477C101.412 30.6477 101.144 30.5828 100.906 30.4529ZM102.228 30.0496C102.38 29.963 102.5 29.8394 102.588 29.6818C102.674 29.5241 102.718 29.3433 102.718 29.1393C102.718 28.9353 102.674 28.7545 102.588 28.5969C102.501 28.4392 102.382 28.3171 102.228 28.2321C102.076 28.1471 101.903 28.1039 101.711 28.1039C101.519 28.1039 101.346 28.1471 101.194 28.2321C101.042 28.3171 100.921 28.4392 100.833 28.5969C100.745 28.7545 100.699 28.9353 100.699 29.1393C100.699 29.3433 100.743 29.5241 100.833 29.6818C100.921 29.8394 101.042 29.9615 101.194 30.0496C101.346 30.1361 101.519 30.1809 101.711 30.1809C101.903 30.1809 102.076 30.1377 102.228 30.0496Z" fill="#EDF0F7"/>
<path d="M105.596 30.4408C105.517 30.5072 105.418 30.5582 105.302 30.5938C105.185 30.6293 105.064 30.6463 104.94 30.6463C104.639 30.6463 104.404 30.5659 104.239 30.4068C104.073 30.2476 103.991 30.0189 103.991 29.7221V27.0176H104.535V27.6636H105.394V28.1025H104.535V29.6989C104.535 29.8581 104.576 29.9802 104.656 30.0668C104.738 30.1518 104.852 30.195 105.003 30.195C105.17 30.195 105.311 30.1487 105.427 30.0559L105.597 30.4392L105.596 30.4408Z" fill="#EDF0F7"/>
<path d="M108.367 29.8239L108.661 30.1686C108.529 30.3247 108.363 30.4437 108.16 30.524C107.959 30.6059 107.733 30.6461 107.484 30.6461C107.167 30.6461 106.887 30.5828 106.642 30.4545C106.397 30.3262 106.207 30.1469 106.073 29.9182C105.94 29.6879 105.872 29.4283 105.872 29.1393C105.872 28.8503 105.936 28.5953 106.067 28.3666C106.197 28.1363 106.377 27.957 106.604 27.8303C106.832 27.702 107.09 27.6387 107.376 27.6387C107.648 27.6387 107.895 27.6989 108.118 27.8195C108.341 27.94 108.517 28.11 108.649 28.3279C108.781 28.5474 108.848 28.7993 108.853 29.0852L106.471 29.5411C106.546 29.7451 106.673 29.9028 106.853 30.014C107.032 30.1253 107.247 30.1809 107.5 30.1809C107.858 30.1809 108.147 30.0619 108.366 29.8255L108.367 29.8239ZM106.872 28.2167C106.722 28.3017 106.606 28.4222 106.524 28.5752C106.441 28.7298 106.4 28.9075 106.4 29.1115V29.1671L108.317 28.8117C108.268 28.5969 108.159 28.4222 107.989 28.2893C107.819 28.1564 107.615 28.0884 107.378 28.0884C107.189 28.0884 107.021 28.1317 106.872 28.2167Z" fill="#EDF0F7"/>
<path d="M112.121 27.9632C112.346 28.1796 112.458 28.4979 112.458 28.9168V30.6137H111.914V28.9786C111.914 28.6927 111.845 28.4779 111.705 28.3326C111.565 28.1873 111.366 28.1162 111.105 28.1162C110.811 28.1162 110.578 28.2012 110.409 28.3697C110.239 28.5381 110.154 28.7808 110.154 29.096V30.6152H109.61V27.6665H110.13V28.1116C110.24 27.9601 110.388 27.8427 110.575 27.7608C110.762 27.6789 110.974 27.6387 111.212 27.6387C111.592 27.6387 111.895 27.7469 112.12 27.9648L112.121 27.9632Z" fill="#EDF0F7"/>
<path d="M115.043 30.4408C114.964 30.5072 114.865 30.5582 114.749 30.5938C114.633 30.6293 114.512 30.6463 114.388 30.6463C114.086 30.6463 113.852 30.5659 113.687 30.4068C113.52 30.2476 113.438 30.0189 113.438 29.7221V27.0176H113.982V27.6636H114.842V28.1025H113.982V29.6989C113.982 29.8581 114.023 29.9802 114.103 30.0668C114.185 30.1518 114.3 30.195 114.45 30.195C114.617 30.195 114.758 30.1487 114.875 30.0559L115.044 30.4392L115.043 30.4408Z" fill="#EDF0F7"/>
<path d="M115.708 26.9973C115.639 26.9309 115.603 26.849 115.603 26.7532C115.603 26.6573 115.637 26.5739 115.708 26.5059C115.779 26.4379 115.865 26.4023 115.97 26.4023C116.076 26.4023 116.164 26.4348 116.233 26.4997C116.302 26.5646 116.338 26.645 116.338 26.7423C116.338 26.8397 116.303 26.9263 116.233 26.9958C116.162 27.0653 116.076 27.0993 115.97 27.0993C115.865 27.0993 115.777 27.0653 115.708 26.9989V26.9973ZM115.7 27.665H116.244V30.6137H115.7V27.665Z" fill="#EDF0F7"/>
<path d="M120.107 27.6649V30.6137H119.587V30.1469C119.466 30.3108 119.313 30.4344 119.128 30.5194C118.942 30.6044 118.74 30.6477 118.516 30.6477C118.226 30.6477 117.966 30.5843 117.735 30.4591C117.506 30.3324 117.325 30.1562 117.195 29.9275C117.064 29.6988 117 29.4376 117 29.1409C117 28.8441 117.064 28.5829 117.195 28.3558C117.325 28.1301 117.504 27.9539 117.735 27.8272C117.965 27.7005 118.226 27.6387 118.516 27.6387C118.732 27.6387 118.93 27.6789 119.11 27.7577C119.291 27.838 119.442 27.9555 119.563 28.1116V27.6665H120.107V27.6649ZM119.077 30.0496C119.231 29.963 119.352 29.8394 119.439 29.6818C119.525 29.5241 119.569 29.3433 119.569 29.1393C119.569 28.9353 119.525 28.7545 119.439 28.5969C119.352 28.4392 119.231 28.3171 119.077 28.2321C118.923 28.1471 118.751 28.1039 118.562 28.1039C118.373 28.1039 118.197 28.1471 118.045 28.2321C117.893 28.3171 117.772 28.4392 117.684 28.5969C117.596 28.7545 117.55 28.9353 117.55 29.1393C117.55 29.3433 117.594 29.5241 117.684 29.6818C117.772 29.8394 117.893 29.9615 118.045 30.0496C118.197 30.1361 118.37 30.1809 118.562 30.1809C118.754 30.1809 118.922 30.1377 119.077 30.0496Z" fill="#EDF0F7"/>
<path d="M121.373 30.4113C121.214 30.2537 121.136 30.0327 121.136 29.7467V26.4858H121.679V29.7019C121.679 29.8611 121.719 29.9832 121.796 30.0697C121.873 30.1547 121.989 30.198 122.143 30.198C122.237 30.198 122.325 30.1795 122.409 30.1424L122.437 30.5813C122.313 30.6261 122.182 30.6477 122.047 30.6477C121.756 30.6477 121.532 30.5689 121.375 30.4113H121.373Z" fill="#EDF0F7"/>
<path d="M14.1598 2.3042C7.96993 2.3042 2.94922 7.24193 2.94922 13.3357C2.94922 19.4294 7.96993 24.3609 14.1598 24.3609C20.3496 24.3609 25.3704 19.4232 25.3704 13.3357C25.3704 7.24811 20.3496 2.3042 14.1598 2.3042ZM11.7618 17.8437C11.7618 18.5732 11.1615 19.1636 10.4198 19.1636C9.67808 19.1636 9.0825 18.5732 9.0825 17.8437C9.0825 17.6645 9.11865 17.4945 9.18465 17.3384L7.32408 15.2335C6.65308 14.4685 6.6735 13.3295 7.37436 12.5892L9.13279 10.7393C9.09665 10.6249 9.0825 10.5044 9.0825 10.3792C9.0825 9.64974 9.68279 9.05938 10.4198 9.05938C11.1568 9.05938 11.7618 9.64974 11.7618 10.3792C11.7618 11.1087 11.1615 11.6944 10.4198 11.6944C10.3082 11.6944 10.1966 11.6789 10.0945 11.6542L8.35179 13.4887C8.11765 13.7328 8.11293 14.113 8.33608 14.368L10.2516 16.5378C10.3082 16.5286 10.3632 16.5286 10.4198 16.5286C10.4968 16.5286 10.5722 16.5332 10.6492 16.544L16.0926 7.77665C15.9606 7.57111 15.8946 7.31147 15.9355 7.0472C16.0172 6.46302 16.5704 6.05193 17.1659 6.13693C17.7662 6.22193 18.1779 6.76129 18.0962 7.35165C18.0098 7.93584 17.4566 8.34693 16.8611 8.26193H16.8454L11.4271 16.9737C11.6361 17.2086 11.7618 17.513 11.7618 17.8437ZM21.1071 15.235L19.2465 17.3399C19.3125 17.4945 19.3486 17.6645 19.3486 17.8453C19.3486 18.5747 18.7484 19.1651 18.0114 19.1651C17.2744 19.1651 16.6694 18.5747 16.6694 17.8453C16.6694 17.1158 17.2696 16.5301 18.0114 16.5301C18.0679 16.5301 18.1229 16.5301 18.1795 16.5394L20.0951 14.3696C20.3182 14.1146 20.3088 13.7344 20.0746 13.4902L18.3366 11.6557C18.2298 11.6805 18.1229 11.6959 18.0114 11.6959C17.2696 11.6959 16.6694 11.1056 16.6694 10.3807C16.6694 9.65593 17.2696 9.06093 18.0114 9.06093C18.7531 9.06093 19.3486 9.65129 19.3486 10.3807C19.3486 10.5059 19.3329 10.6249 19.2984 10.7408L21.0568 12.5907C21.7576 13.331 21.7781 14.47 21.1071 15.235Z" fill="#EDF0F7"/>
</svg>
